<svg t="1583248860513" class="icon" viewBox="0 0 1025 1024" version="1.1" xmlns="http://www.w3.org/2000/svg" p-id="3787" width="128" height="128"><path d="M640.552214 420.171415c-18.93762 2.111289-32.117181-0.191935-39.410724-6.973651-7.293543-6.717737-10.236552-19.065577-8.701068-36.851586l30.581697-262.823461c2.239246-20.665038 8.25322-33.844599 18.105901-39.53868 9.788702-5.694082 20.920952-2.111289 33.332771 10.6844 7.293543 7.101608 16.762353 15.866655 28.470409 26.231164 11.644077 10.236552 21.496758 19.38547 29.494064 27.19084 8.765047 7.869349 16.826332 10.492465 24.119875 7.997306 7.293543-2.495159 15.67472-8.317198 25.14353-17.594073 19.705362-19.193534 37.043521-36.723629 51.950499-52.33437 14.970957-15.67472 32.629008-33.524706 53.102111-53.422004 4.350534-4.286556 9.46881-8.381177 15.290849-12.34784a62.698878 62.698878 0 0 1 18.55375-8.509133 37.747284 37.747284 0 0 1 20.856973 0.511827 50.351038 50.351038 0 0 1 21.880629 14.970957c4.350534 4.286556 8.189241 7.869349 11.516121 10.6844 3.198922 2.87903 6.333866 5.75806 9.212896 8.573112 2.943009 2.815052 6.077952 5.694082 9.340854 8.509134 3.262901 2.87903 7.485478 7.165586 12.603754 12.795689 14.587086 14.267194 20.409125 26.742991 17.466116 37.427392-2.87903 10.684401-12.027948 23.160198-27.318797 37.427392l-41.585991 42.737602c-13.883323 14.203215-30.261806 30.581698-49.263404 49.135448-13.819345 12.795689-23.352133 24.183853-28.406431 34.164491-5.118276 9.980638-2.559138 19.193534 7.677414 27.766646 6.525802 6.397845 14.906978 15.162892 25.14353 26.231163 10.236552 11.004293 18.93762 20.089232 26.231163 27.19084 12.411819 12.155905 17.146224 22.840306 14.203215 32.053202-2.87903 9.276875-13.819345 14.970957-32.820943 17.082246l-276.770763 31.029547zM384.318533 576.982589c18.233857-1.407526 31.157504 1.279569 38.834917 8.061284 7.677414 6.717737 10.748379 18.681707 9.276875 35.763952l-30.581698 262.823462c-2.239246 21.368801-8.25322 34.740297-18.1059 40.050508-9.788702 5.37419-20.920952 1.919353-33.332771-10.108595a973.112183 973.112183 0 0 0-30.069871-27.830625 989.746579 989.746579 0 0 1-31.221482-28.790301c-8.765047-8.573112-15.994612-12.34784-21.880629-11.260207-5.75806 1.087634-13.115582 6.269888-21.880629 15.482785-9.46881 9.276875-18.55375 18.361814-27.318797 27.254818-8.765047 8.956983-17.530095 17.658051-26.231163 26.231164-8.765047 8.509133-17.72203 17.402138-26.870948 26.679012-9.08494 9.212896-18.745685 18.873642-28.982237 28.790301a249.899815 249.899815 0 0 1-14.203215 12.859668 53.422003 53.422003 0 0 1-16.954288 9.596767 33.524706 33.524706 0 0 1-19.705362 0.575806 52.782219 52.782219 0 0 1-22.392457-14.459129 274.339582 274.339582 0 0 0-11.51612-10.6844 210.169199 210.169199 0 0 1-9.276875-8.509134l-8.765047-9.596767-13.115582-11.772034c-14.587086-14.267194-20.984931-27.254819-19.193534-39.026853 1.855375-11.708056 10.428487-25.079551 25.719336-40.050508 13.883323-13.563431 28.470409-27.958581 43.761258-43.24943 15.354827-15.354827 32.437073-32.245137 51.438671-50.798888 13.115582-12.795689 21.304823-23.288155 24.631702-31.477396 3.198922-8.189241 0.127957-16.954289-9.340853-26.231163a380.031977 380.031977 0 0 1-24.567724-23.991918c-9.148918-9.596767-17.338159-17.977944-24.631702-25.143529-12.411819-12.091927-16.954289-22.776327-13.691388-31.989224 3.262901-9.276875 14.395151-14.970957 33.39675-17.146224l276.770763-31.989224z" p-id="3788"></path></svg>