<svg t="1583248639445" class="icon" viewBox="0 0 1024 1024" version="1.1" xmlns="http://www.w3.org/2000/svg" p-id="3042" width="128" height="128"><path d="M1023.727006 239.142629a34.124234 34.124234 0 0 1-68.248467 0V68.521461h-170.621168a34.124234 34.124234 0 0 1 0-68.248467l207.065849-0.272994a32.008531 32.008531 0 0 1 32.008532 32.042655zM238.869635 68.521461H68.248467v170.621168a34.124234 34.124234 0 0 1-68.248467 0V32.042655a32.008531 32.008531 0 0 1 32.008531-32.042655L238.869635 0.272994a34.124234 34.124234 0 0 1 0 68.248467zM34.124234 751.006132a35.762197 35.762197 0 0 1 34.124233 34.124233v170.621168h170.621168a34.124234 34.124234 0 0 1 0 68.248467H31.974407a32.008531 32.008531 0 0 1-32.008531-32.008531V785.130365A35.762197 35.762197 0 0 1 34.124234 751.006132z m136.496934 136.496934a35.728073 35.728073 0 0 1-34.124234-34.124234V170.894162a35.728073 35.728073 0 0 1 34.124234-34.124234h682.48467a35.728073 35.728073 0 0 1 34.124234 34.124234v682.48467a35.728073 35.728073 0 0 1-34.124234 34.124234H170.621168z m614.236203 68.248467h170.621168v-170.621168a34.124234 34.124234 0 0 1 68.248467 0v204.745401a35.728073 35.728073 0 0 1-34.124233 34.124234h-204.745402a34.124234 34.124234 0 0 1 0-68.248467z" p-id="3043"></path></svg>